<?xml version="1.0" standalone="no"?>
<!DOCTYPE svg PUBLIC "-//W3C//DTD SVG 20010904//EN"
 "http://www.w3.org/TR/2001/REC-SVG-20010904/DTD/svg10.dtd">
<svg version="1.0" xmlns="http://www.w3.org/2000/svg"
 width="192.000000pt" height="192.000000pt" viewBox="0 0 192.000000 192.000000"
 preserveAspectRatio="xMidYMid meet">
<metadata>
Created by potrace 1.14, written by Peter Selinger 2001-2017
</metadata>
<g transform="translate(0.000000,192.000000) scale(0.100000,-0.100000)"
fill="#000000" stroke="none">
<path d="M1233 1489 c-18 -11 -42 -36 -54 -56 -18 -30 -26 -34 -48 -28 -53 13
-236 17 -275 7 -37 -11 -41 -9 -78 22 -75 64 -154 63 -224 -5 -60 -58 -78
-110 -78 -224 0 -72 4 -111 17 -138 15 -35 15 -44 2 -108 -17 -78 -20 -179 -5
-144 5 11 9 40 9 65 2 57 20 92 22 40 1 -19 1 -38 0 -42 0 -4 7 -22 17 -40 15
-28 16 -38 6 -68 -15 -44 -9 -59 21 -55 21 2 23 0 14 -17 -5 -10 -15 -16 -21
-12 -7 4 -8 -1 -3 -16 5 -15 4 -20 -4 -16 -16 10 -40 59 -50 103 -7 28 -9 32
-10 13 -1 -38 42 -122 80 -155 l34 -30 -42 -74 c-70 -123 -145 -315 -177 -450
-8 -33 -11 -61 -6 -61 4 0 16 33 25 73 10 39 19 73 20 75 6 8 34 -12 29 -20
-4 -6 -2 -13 4 -17 8 -5 7 -22 -3 -59 -22 -86 5 -56 31 33 26 93 83 245 113
303 13 26 17 42 10 44 -18 6 -13 109 7 127 9 9 14 11 11 5 -9 -16 50 -40 140
-59 59 -13 103 -15 183 -10 126 8 288 39 343 65 23 11 42 20 43 20 3 0 36 -84
50 -130 19 -60 18 -79 -1 -54 -14 19 -14 19 -15 -3 0 -25 -57 -50 -74 -33 -19
19 -22 10 -18 -55 4 -56 2 -65 -12 -65 -10 0 -15 -4 -11 -10 3 -5 12 -7 20 -3
9 3 15 -1 15 -11 0 -9 -7 -16 -15 -16 -8 0 -15 -5 -15 -10 0 -6 8 -10 18 -8
13 2 18 -5 20 -29 4 -37 12 -39 72 -18 23 8 46 13 50 10 5 -3 11 -1 15 5 17
27 42 2 50 -50 1 -8 8 -34 14 -57 11 -41 13 -43 51 -43 23 0 40 5 40 11 0 70
-124 489 -178 604 l-28 59 25 46 c24 41 26 55 26 156 0 105 1 112 27 143 37
44 52 102 44 182 -20 222 -155 364 -273 288z m-482 -55 c22 -15 39 -30 39 -33
0 -4 -20 -17 -45 -29 -25 -12 -45 -27 -45 -33 0 -6 14 -2 33 9 38 24 138 55
146 46 3 -4 1 -9 -5 -11 -7 -2 -10 -13 -7 -23 4 -14 0 -20 -11 -20 -10 0 -14
-5 -11 -10 3 -6 -1 -13 -9 -16 -11 -4 -14 -14 -10 -31 5 -19 2 -25 -14 -30
-13 -3 -19 -10 -15 -20 3 -8 1 -18 -6 -22 -8 -5 -9 -15 -2 -32 5 -13 10 -18
10 -11 1 6 8 12 17 12 13 0 14 3 4 15 -9 11 -8 18 9 36 12 13 21 29 21 36 0 7
5 13 11 13 8 0 8 5 -1 15 -10 12 -9 15 4 15 10 0 15 4 12 8 -3 5 4 19 16 32
16 17 18 24 8 30 -9 6 -6 11 10 20 39 21 240 -5 240 -30 0 -5 -18 -19 -40 -31
-34 -19 -39 -26 -34 -48 3 -14 17 -35 30 -47 17 -14 25 -32 26 -56 1 -26 5
-35 17 -34 10 1 15 -6 13 -17 -2 -9 2 -16 8 -15 13 3 42 -66 42 -99 0 -19 4
-22 25 -17 19 5 24 3 21 -7 -5 -14 -43 -15 -155 -3 -44 4 -53 9 -53 24 0 31
-43 51 -122 57 -56 4 -81 2 -104 -10 -24 -12 -40 -13 -84 -5 -30 5 -60 14 -67
20 -7 5 -17 7 -22 4 -5 -4 -36 -2 -68 3 -35 5 -62 5 -69 0 -8 -6 -13 2 -18 28
-18 115 4 227 58 288 63 71 124 80 197 29z m504 16 c-10 -11 -20 -18 -23 -15
-7 6 18 35 31 35 5 0 2 -9 -8 -20z m30 -9 c-3 -6 -11 -11 -17 -11 -6 0 -6 6 2
15 14 17 26 13 15 -4z m94 -27 c3 -16 1 -17 -13 -5 -19 16 -21 34 -3 29 6 -3
14 -13 16 -24z m-214 -134 c-3 -5 -12 -10 -20 -10 -8 0 -17 5 -20 10 -4 6 5
10 20 10 15 0 24 -4 20 -10z m75 -80 c0 -5 -9 -10 -20 -10 -11 0 -20 5 -20 10
0 6 9 10 20 10 11 0 20 -4 20 -10z m5 -30 c3 -5 -3 -10 -14 -10 -12 0 -21 5
-21 10 0 6 6 10 14 10 8 0 18 -4 21 -10z m195 -76 c0 -8 -4 -12 -10 -9 -5 3
-10 10 -10 16 0 5 5 9 10 9 6 0 10 -7 10 -16z m-159 -37 c-8 -8 -11 -7 -11 4
0 20 13 34 18 19 3 -7 -1 -17 -7 -23z m139 7 c0 -8 -4 -12 -10 -9 -5 3 -10 13
-10 21 0 8 5 12 10 9 6 -3 10 -13 10 -21z m-805 2 c11 -2 37 -6 59 -10 21 -4
36 -10 33 -12 -8 -9 -167 18 -174 29 -4 6 6 8 28 3 19 -3 43 -8 54 -10z m-78
-53 c-17 -18 -22 -8 -11 22 5 12 10 13 17 6 8 -8 6 -16 -6 -28z m119 17 c16 0
44 -57 44 -88 0 -10 -12 -25 -27 -33 -16 -8 -43 -27 -61 -44 -19 -16 -39 -30
-45 -30 -6 0 -18 32 -27 70 -15 61 -15 72 -3 87 20 22 75 49 91 43 8 -3 20 -5
28 -5z m112 3 c-10 -2 -26 -2 -35 0 -10 3 -2 5 17 5 19 0 27 -2 18 -5z m23
-60 c3 -18 18 -49 33 -68 l27 -35 -26 10 c-15 6 -54 10 -88 10 -62 0 -62 1
-39 18 22 17 23 22 13 58 -6 21 -11 42 -11 45 0 3 19 3 42 0 38 -5 43 -9 49
-38z m428 -9 c8 -7 -114 -2 -144 6 -17 4 8 5 55 2 47 -2 87 -6 89 -8z m34 -24
l138 0 -7 -62 c-11 -113 -69 -204 -154 -248 -51 -25 -136 -52 -157 -48 -10 1
-22 0 -28 -4 -10 -6 -111 -11 -170 -9 l-30 1 26 18 c15 9 39 31 55 48 25 26
29 39 29 85 0 51 -3 57 -45 99 l-45 45 41 -3 c38 -4 44 0 85 45 42 48 45 49
84 42 22 -5 102 -8 178 -9z m-470 -77 c-7 -2 -19 -2 -25 0 -7 3 -2 5 12 5 14
0 19 -2 13 -5z m52 -16 c13 -11 15 -16 6 -22 -7 -4 -18 -2 -24 4 -6 6 -7 11
-1 11 5 0 2 5 -6 10 -8 5 -10 10 -4 10 5 0 18 -6 29 -13z m-209 -22 c-1 -8 -5
-17 -8 -21 -4 -3 -4 -12 -2 -19 3 -8 -4 -19 -16 -25 -18 -10 -21 -9 -15 1 6 9
3 11 -8 6 -24 -9 -21 -3 14 38 35 39 38 41 35 20z m274 -25 l22 -30 -36 21
c-20 11 -33 25 -30 30 9 16 22 10 44 -21z m-173 -72 c-3 -7 -5 -2 -5 12 0 14
2 19 5 13 2 -7 2 -19 0 -25z m-77 -68 c0 -5 -13 -16 -29 -25 -38 -19 -51 -1
-14 19 33 18 43 19 43 6z m117 4 c-3 -3 -12 -4 -19 -1 -8 3 -5 6 6 6 11 1 17
-2 13 -5z m66 -19 c-3 -9 -8 -14 -10 -11 -3 3 -2 9 2 15 9 16 15 13 8 -4z
m-148 -5 c-3 -5 -12 -10 -18 -10 -7 0 -6 4 3 10 19 12 23 12 15 0z m-125 -236
c0 -8 -4 -12 -10 -9 -5 3 -10 10 -10 16 0 5 5 9 10 9 6 0 10 -7 10 -16z m-20
-40 c0 -8 -4 -12 -10 -9 -5 3 -10 10 -10 16 0 5 5 9 10 9 6 0 10 -7 10 -16z
m862 -46 c-6 -7 -12 -26 -15 -43 l-4 -30 -2 31 c0 16 4 35 11 42 16 16 23 15
10 0z m-897 -58 c-3 -5 -10 -10 -16 -10 -5 0 -9 5 -9 10 0 6 7 10 16 10 8 0
12 -4 9 -10z m926 -48 c-13 -2 -27 0 -32 5 -6 6 3 7 23 4 28 -4 29 -6 9 -9z"/>
<path d="M580 1367 c-35 -18 -61 -59 -67 -105 -6 -45 3 -112 16 -112 5 0 20
18 35 40 15 23 43 59 63 81 31 35 35 44 27 66 -11 32 -44 45 -74 30z"/>
<path d="M605 997 c-25 -19 -12 -59 18 -55 26 4 35 39 14 56 -10 9 -18 8 -32
-1z"/>
<path d="M1295 790 c-4 -6 -15 -8 -26 -5 -13 4 -19 2 -19 -9 0 -19 -21 -21
-39 -3 -11 10 -14 10 -18 0 -3 -7 -13 -13 -23 -13 -10 0 -21 6 -23 13 -4 9 -8
9 -15 -2 -5 -7 -15 -10 -21 -7 -6 4 -11 2 -11 -3 0 -6 5 -11 10 -11 6 0 10 -7
10 -16 0 -13 3 -14 14 -4 8 6 25 11 38 9 13 -1 31 1 40 5 9 4 27 6 40 4 22 -3
67 36 55 48 -3 3 -8 0 -12 -6z"/>
<path d="M700 415 c-12 -19 -25 -35 -30 -35 -4 0 -7 -8 -6 -17 0 -10 -5 -17
-12 -15 -8 1 -12 -3 -9 -10 2 -7 -2 -25 -10 -40 -13 -27 -12 -29 26 -55 22
-16 38 -33 36 -40 -2 -7 0 -15 5 -18 4 -3 10 1 13 7 3 10 9 9 23 -4 18 -16 21
-15 52 13 17 16 32 32 32 37 0 4 14 27 30 49 19 26 27 44 20 48 -6 4 -8 16 -4
27 5 17 3 19 -12 10 -14 -8 -25 -4 -51 17 -18 14 -33 32 -33 39 0 7 -5 10 -10
7 -6 -4 -17 -2 -24 5 -11 8 -19 3 -36 -25z m87 -67 c-3 -8 -6 -5 -6 6 -1 11 2
17 5 13 3 -3 4 -12 1 -19z m-27 -8 c0 -5 -2 -10 -4 -10 -3 0 -8 5 -11 10 -3 6
-1 10 4 10 6 0 11 -4 11 -10z m-16 -49 c-6 -6 -24 19 -24 34 1 6 7 1 15 -9 8
-11 12 -22 9 -25z"/>
<path d="M1111 366 c-6 -8 -17 -42 -23 -75 -9 -47 -15 -61 -27 -59 -9 2 -21
-6 -27 -17 -5 -11 -18 -19 -27 -19 -9 1 -17 -4 -17 -12 0 -17 -57 -47 -76 -40
-9 3 -14 -1 -14 -13 0 -25 -23 -43 -45 -34 -14 5 -17 3 -12 -10 7 -19 -19 -37
-42 -29 -9 3 -11 0 -6 -7 4 -7 -1 -21 -11 -32 -17 -19 -14 -19 191 -19 l208 0
-7 83 c-8 112 -34 279 -44 289 -5 5 -14 2 -21 -6z m-51 -246 c0 -5 -7 -7 -15
-4 -8 4 -15 8 -15 10 0 2 7 4 15 4 8 0 15 -4 15 -10z m-91 -92 c1 -10 -3 -18
-8 -18 -10 0 -21 57 -12 66 6 6 19 -24 20 -48z m31 21 c0 -11 -4 -17 -10 -14
-5 3 -10 15 -10 26 0 11 5 17 10 14 6 -3 10 -15 10 -26z"/>
</g>
</svg>
